<?xml version="1.0" encoding="utf-8"?>
<!-- Generator: Adobe Illustrator 17.1.0, SVG Export Plug-In . SVG Version: 6.00 Build 0)  -->
<!DOCTYPE svg PUBLIC "-//W3C//DTD SVG 1.1//EN" "http://www.w3.org/Graphics/SVG/1.1/DTD/svg11.dtd">
<svg version="1.1" id="Layer_1" xmlns="http://www.w3.org/2000/svg" xmlns:xlink="http://www.w3.org/1999/xlink" x="0px" y="0px"
	 viewBox="0 0 28.235 24" enable-background="new 0 0 28.235 24" xml:space="preserve">
<g>
	<path fill="#929292" d="M0.706,1.412h26.824c0.39,0,0.706-0.316,0.706-0.706C28.235,0.316,27.92,0,27.529,0H0.706
		C0.316,0,0,0.316,0,0.706C0,1.096,0.316,1.412,0.706,1.412z"/>
	<path fill="#929292" d="M27.529,11.294H0.706C0.316,11.294,0,11.61,0,12c0,0.39,0.316,0.706,0.706,0.706h26.824
		c0.39,0,0.706-0.316,0.706-0.706C28.235,11.61,27.92,11.294,27.529,11.294z"/>
	<path fill="#929292" d="M27.529,22.588H0.706C0.316,22.588,0,22.905,0,23.294C0,23.684,0.316,24,0.706,24h26.824
		c0.39,0,0.706-0.316,0.706-0.706C28.235,22.905,27.92,22.588,27.529,22.588z"/>
</g>
</svg>
